- 
http://www.Speed.Cd
 
http://www.Speed.Cd       the fast  and The Hottest Private Tracker on the net

Please Seed back to make the speed Faster!!
 ............ NFO .............
-        _____ _____  _____ _   _______ ___________  _______   __
       /  __   _  ||  _  | | / /_   _|  ___| ___ |  _    / /
       | /  / | | || | | | |/ /  | | | |__ | |_/ /| | | | V /
       | |   | | | || | | |      | | |  __|| ___ | | | |  /
       | __/ _/ / _/ / |  _| |_| |___| |_/ / _/ / | |
        ____/___/  ___/_| _/___/____/____/  ___/  _/


---------------------------------------------------------------------
TITLE: Snitch 2013 HDCAM - DiVX MP3 - CLEANED AUDIO - C00KIEBOY

                                                                                         
IMDB:http://www.imdb.com/title/tt0882977/?ref_=sr_1
                                                                                        
ALL CREDITS GO TO ORIGINAL SOURCE/S:

VIDEO - A FRIEND
AUDIO - A FRIEND

---------------------------------------------------------------------
Greetz: tommiecook, adtrg, matine, 26k, cm8, 1mperium,
---------------------------------------------------------------------

General

Format                                   : AVI
Format/Info                              : Audio Video Interleave
File size                                : 1.82 GiB
Duration                                 : 1h 45mn
Overall bit rate                         : 2 464 Kbps
Writing library                          : VirtualDub build 32842/release

Video
ID                                       : 0
Format                                   : MPEG-4 Visual
Format settings, BVOP                    : Yes
Format settings, QPel                    : No
Format settings, GMC                     : No warppoints
Format settings, Matrix                  : Default (H.263)
Codec ID                                 : DX50
Codec ID/Hint                            : DivX 5
Duration                                 : 1h 45mn
Bit rate                                 : 2 197 Kbps
Width                                    : 820 pixels
Height                                   : 360 pixels
Display aspect ratio                     : 2.25:1
Frame rate                               : 29.970 fps
Color space                              : YUV
Chroma subsampling                       : 4:2:0
Bit depth                                : 8 bits
Scan type                                : Progressive
Compression mode                         : Lossy
Bits/(Pixel*Frame)                       : 0.248
Stream size                              : 1.62 GiB (89%)
Writing library                          : DivX 6.8.5 (UTC 2009-08-20)

Audio
ID                                       : 1
Format                                   : MPEG Audio
Format version                           : Version 1
Format profile                           : Layer 3
Codec ID                                 : 55
Codec ID/Hint                            : MP3
Duration                                 : 1h 45mn
Bit rate mode                            : Constant
Bit rate                                 : 256 Kbps
Channel(s)                               : 2 channels
Sampling rate                            : 44.1 KHz
Compression mode                         : Lossy
Stream size                              : 194 MiB (10%)
Alignment                                : Split accross interleaves
Interleave, duration                     : 33 ms (1.00 video frame)
Interleave, preload duration             : 500 ms




---------------------------------------------------------------------
WORK DONE:

VIDEO: CROPPED, RESIZED, FIXED COLRS, DENOISED, REMOVED BAD PIXELS ECT

AUDIO: RUN THROUGH SOUND FORGE

---------------------------------------------------------------------
SCREENSHOTS:
 
http://www.freeimgshost.com/fullsize/ncsjyx3zxuuzfhzdluz.png 
http://www.freeimgshost.com/fullsize/iw62nncunhcqw6q9x5u1.png 
http://www.freeimgshost.com/fullsize/z3ehemczrz05izmg3veo.png 
http://www.freeimgshost.com/fullsize/ejq3hlvhz0t0ftgsk7l.png 
http://www.freeimgshost.com/fullsize/72epvsr7roibdudp4zob.png 
http://www.freeimgshost.com/fullsize/w0ja9k7ixkoq9eia1s9v.png 
http://www.freeimgshost.com/fullsize/foz7w13ew85ogmwttux4.png